<svg width="580" height="80" viewBox="0 0 580 80" fill="none" xmlns="http://www.w3.org/2000/svg">
<path d="M514.922 2.03842C507.82 11.2579 506.388 26.8671 511.722 37.4254C513.551 41.0767 517.27 45.3061 520.744 47.6795C525.743 51.0873 534.37 53.9171 542.051 54.6473C544.703 54.8907 544.825 55.408 541.045 50.6309C530.651 37.4559 521.415 18.6518 517.635 2.95124C517.27 1.33859 516.843 -0.000212198 516.721 -0.000212198C516.599 -0.000212198 515.806 0.912609 514.922 2.03842Z" fill="#FF0100"/>
<path d="M351.39 7.45463C351.238 7.51548 350.506 7.72847 349.805 7.91104L348.495 8.24574V36.2085V64.2017H350.324H352.152V35.7521C352.152 20.1124 352.061 7.30249 351.939 7.33292C351.787 7.33292 351.573 7.39377 351.39 7.45463Z" fill="#FF0100"/>
<path d="M84.1915 9.00636C81.9664 9.67576 79.9547 12.3229 79.9547 14.605C79.9547 16.5219 81.5702 19.0474 83.4295 19.9906C85.7156 21.1773 89.4343 20.2949 91.0194 18.1954C93.7017 14.6658 91.8423 9.76704 87.514 8.85422C85.7461 8.45867 85.9595 8.45867 84.1915 9.00636Z" fill="#FF0100"/>
<path d="M308.961 10.1932C307.772 10.7105 307.345 11.4712 307.345 13.0229C307.345 14.6965 308.503 15.8223 310.21 15.8223C311.765 15.8223 312.679 15.2137 313.136 13.8749C313.624 12.384 312.923 10.7713 311.49 10.1932C310.21 9.64551 310.18 9.64551 308.961 10.1932Z" fill="#FF0100"/>
<path d="M363.522 10.1628C360.718 11.4103 361.663 15.8223 364.741 15.8223C366.235 15.8223 366.966 15.4267 367.576 14.24C368.887 11.6841 366.235 9.00654 363.522 10.1628Z" fill="#FF0100"/>
<path d="M13.2312 24.494C11.9815 24.7374 10.0611 25.1938 8.9638 25.5589C6.76915 26.2588 2.71514 28.2974 2.77611 28.693C2.77611 28.8147 3.56862 30.4273 4.48306 32.2225L6.19001 35.5391L7.77503 34.6871C13.5665 31.5836 20.821 31.9183 22.4365 35.387C22.8937 36.3606 23.4729 38.9165 23.229 38.947C23.1681 38.9774 20.7905 39.0991 17.9253 39.2512C10.4879 39.6468 6.8606 40.7726 3.72103 43.7241C-2.13138 49.1706 -0.363465 60.1244 6.92156 63.6844C9.05525 64.7189 10.7317 65.0841 13.3531 65.1145C16.8889 65.1145 20.5772 63.9583 23.3814 61.9805C24.2349 61.3719 24.2959 61.3719 24.6007 61.9196C24.7836 62.2239 25.2408 62.8324 25.6066 63.2584C26.2467 64.0191 26.3381 64.0495 30.575 64.1408L34.9338 64.2625L34.69 63.3801C34.1718 61.3111 33.9584 56.321 33.928 46.3408C33.928 39.5859 33.806 35.0218 33.5927 34.0177C32.8002 30.3056 30.3617 27.1716 27.0392 25.6502C23.7167 24.1288 17.8948 23.642 13.2312 24.494ZM23.2595 50.5702V54.3128L22.1927 55.0126C20.6076 56.0167 17.651 56.6861 15.8526 56.4427C13.9627 56.1993 12.8959 55.682 11.8595 54.4649C11.1889 53.6738 11.067 53.2174 11.067 51.696C11.067 50.0834 11.1585 49.7791 12.0729 48.8359C13.3836 47.4362 15.4563 46.8885 19.8456 46.8885L23.2595 46.8581V50.5702Z" fill="#FF0100"/>
<path d="M109.948 24.494C108.79 24.707 107.022 25.1025 106.016 25.4068C104.218 25.9241 99.6455 28.0844 99.3712 28.5104C99.2798 28.6625 100.042 30.2752 101.017 32.1312L102.816 35.4783L105.102 34.3524C108.028 32.9528 110.405 32.4355 113.423 32.6181C116.288 32.7702 117.995 33.5918 118.91 35.2653C119.489 36.2694 120.159 38.9165 119.855 38.947C119.794 38.9774 117.416 39.0991 114.551 39.2512C108.79 39.5555 106.717 39.9815 103.517 41.5333C100.834 42.8721 98.5787 45.1846 97.6033 47.7101C96.6584 50.1442 96.6279 54.4954 97.6033 56.9295C99.5846 62.0718 103.334 64.719 109.064 65.0232C113.118 65.2362 116.837 64.2017 120.007 61.9805C120.739 61.4632 120.952 61.4328 121.043 61.7979C121.135 62.0109 121.653 62.6803 122.202 63.1976L123.177 64.2017H127.353H131.529L131.316 63.3801C130.767 61.1285 130.554 56.6557 130.554 46.5538C130.554 34.5959 130.432 33.5005 128.908 30.4882C127.963 28.6321 125.798 26.6239 123.665 25.6502C120.373 24.1593 114.52 23.642 109.948 24.494ZM119.885 50.4485C119.885 54.4041 119.855 54.4649 117.812 55.4995C113.24 57.8119 107.754 55.9559 107.601 52.0003C107.449 48.2577 109.765 46.9494 116.471 46.8885L119.885 46.8581V50.4485Z" fill="#FF0100"/>
<path d="M156.95 24.5244C154.603 25.0416 151.586 26.3196 149.361 27.7497C148.568 28.2669 147.867 28.6321 147.836 28.5712C147.775 28.5104 147.562 28.0539 147.318 27.5671C147.074 27.0803 146.312 26.3196 145.672 25.8936C144.605 25.1938 144.118 25.1025 141.161 24.9808L137.869 24.8895V44.5456V64.2017H143.203H148.538V50.6615V37.1517L149.909 36.2085C152.744 34.2611 154.542 33.6526 157.469 33.6222H160.151L161.187 34.748C161.736 35.3565 162.346 36.3606 162.528 37.03C162.742 37.7603 162.864 42.9025 162.864 51.1787V64.2017H168.381H173.867L173.746 49.5052C173.624 33.7134 173.624 33.5613 171.917 30.2447C170.85 28.1757 168.198 25.7719 165.973 24.9504C163.687 24.068 159.785 23.8854 156.95 24.5244Z" fill="#FF0100"/>
<path d="M194.412 24.5245C191.729 25.1027 187.889 26.9283 185.816 28.5714C180.695 32.6791 177.861 40.1338 178.653 47.3146C179.263 52.7307 181 56.6863 184.292 59.9724C186.426 62.1328 190.023 63.9888 193.345 64.6887C196.302 65.3276 201.423 65.1147 204.775 64.2323C207.702 63.4411 211.939 61.5242 211.939 60.9765C211.939 60.6418 209.561 53.9174 209.317 53.6131C209.287 53.5523 208.433 53.9174 207.458 54.4346C202.581 56.8688 197.064 56.8993 193.741 54.4955C189.504 51.4223 187.98 44.1198 190.449 38.7341C191.425 36.6042 193.375 34.5656 195.448 33.5615C197.003 32.7704 197.429 32.7095 200.508 32.7399C204.105 32.7399 206.086 33.2876 208.677 34.9003C209.348 35.3263 209.896 35.6001 209.957 35.5392C209.988 35.4784 210.14 33.531 210.232 31.1577L210.445 26.8674L208.525 26.0459C205.477 24.768 203.495 24.342 199.898 24.1898C197.551 24.0986 195.905 24.1898 194.412 24.5245Z" fill="#FF0100"/>
<path d="M227.423 24.4634C223.918 25.1024 220.351 26.3803 217.974 27.8712L216.785 28.6319L218.553 31.9485C219.528 33.8046 220.443 35.2955 220.565 35.2955C220.687 35.2955 221.601 34.9 222.577 34.4131C225.899 32.7092 230.441 32.0702 233.336 32.8613C234.678 33.2569 236.171 34.4436 236.75 35.5694C237.116 36.2692 237.665 38.9468 237.482 38.9468C237.421 38.9468 235.074 39.0989 232.209 39.2511C229.374 39.4032 226.204 39.7379 225.198 40.0118C220.748 41.168 217.273 43.6022 215.718 46.6145C213.493 50.9656 214.286 57.3249 217.517 61.0066C221.936 66.0576 231.386 66.4836 237.634 61.9499C238.396 61.4022 238.579 61.3718 238.701 61.7673C238.793 62.0107 239.311 62.6801 239.859 63.1974L240.835 64.2015H245.011C248.821 64.2015 249.156 64.1711 249.004 63.6538C248.425 61.8282 248.211 57.5075 248.211 47.3143C248.211 38.1861 248.12 35.3564 247.754 33.835C246.596 28.9971 243.792 26.1673 238.732 24.7676C236.415 24.1287 230.288 23.9765 227.423 24.4634ZM237.543 50.4483C237.543 54.556 237.543 54.5865 234.952 55.7123C231.66 57.1728 227.271 56.4425 225.899 54.2213C225.107 52.9434 224.985 50.6918 225.625 49.4747C226.631 47.6186 228.825 46.9492 234.129 46.8883L237.543 46.8579V50.4483Z" fill="#FF0100"/>
<path d="M278.174 24.4637C276.986 24.7071 275.279 25.1331 274.364 25.4069C272.871 25.8937 268.969 27.5672 268.725 27.8107C268.542 27.9932 269.945 30.7317 270.219 30.7317C270.341 30.7317 271.225 30.3666 272.2 29.9406C280.522 26.198 287.41 26.2893 291.434 30.2144C293.507 32.2531 294.025 33.957 294.177 39.6165C294.238 42.2637 294.238 44.424 294.147 44.424C294.055 44.424 293.171 44.0284 292.165 43.5112C288.843 41.8681 286.008 41.2596 281.741 41.2596C275.736 41.29 271.865 42.6592 268.939 45.8541C266.988 47.984 266.195 50.0835 266.195 53.2479C266.195 58.5423 269 62.1936 274.608 64.2626C277.108 65.1755 283.783 65.2363 286.313 64.3844C288.569 63.6237 291.403 62.1936 292.744 61.1286C293.354 60.6418 293.964 60.2462 294.055 60.2462C294.147 60.2462 294.238 61.1286 294.238 62.224V64.2018H295.915H297.622L297.53 48.7447C297.439 33.4701 297.439 33.2876 296.738 31.6141C295.427 28.3584 292.805 26.1067 288.965 24.8896C286.496 24.0985 281.162 23.916 278.174 24.4637ZM284.728 44.424C287.715 44.8196 290.55 45.7628 292.684 47.1625L294.238 48.1361V52.183V56.1994L292.805 57.5686C286.831 63.076 276.711 63.5932 271.834 58.5727C268.786 55.4083 268.847 50.6008 272.017 47.4363C274.73 44.7283 278.997 43.7242 284.728 44.424Z" fill="#FF0100"/>
<path d="M334.321 24.4635C331.517 25.3459 329.505 26.8064 327.645 29.3015L326.548 30.7924V27.7192V24.6461H324.872H323.195V44.4239V64.2017H324.872H326.548V50.3268V36.4519L327.463 34.5046C328.712 31.9487 331.029 29.4536 333.193 28.3886C334.748 27.628 335.266 27.5367 338.07 27.5367H341.179V25.9849C341.179 24.8286 341.057 24.3722 340.691 24.2201C339.868 23.9158 335.601 24.068 334.321 24.4635Z" fill="#FF0100"/>
<path d="M391.168 24.2505C388.029 24.7678 385.377 26.1066 383.03 28.3886L381.11 30.2143V27.5975V24.9504H379.281H377.452V44.576V64.2017H379.281H381.11V49.3227V34.4437L382.451 32.6485C385.072 29.0885 388.486 27.5367 393.759 27.5367C396.868 27.5367 397.234 27.5975 399.094 28.4799C402.416 30.0622 404.489 32.6181 405.312 36.2085C405.708 37.8211 405.799 40.59 405.799 51.1787V64.2017H407.659H409.518L409.396 50.1138C409.274 36.6345 409.244 35.9651 408.604 34.0481C407.811 31.614 405.891 28.6625 404.336 27.4454C400.983 24.7982 395.619 23.4898 391.168 24.2505Z" fill="#FF0100"/>
<path d="M433.537 24.5245C426.832 25.9546 421.68 30.7012 419.333 37.5778C418.266 40.7423 417.992 45.8845 418.724 49.2924C420.37 56.9905 426.283 63.0151 433.781 64.6886C436.708 65.3276 441.31 65.145 444.663 64.2322C447.376 63.5019 451.948 61.2199 452.04 60.5201C452.101 60.3071 451.674 59.5768 451.156 58.9683L450.15 57.812L448.473 58.877C444.998 61.1286 439.055 62.2544 435.001 61.4937C430.367 60.5809 425.765 56.9905 423.692 52.6089C422.656 50.4182 421.955 47.9231 421.955 46.4018V45.6411H438.75H455.575L455.393 42.6592C455.088 37.2127 453.198 32.9224 449.449 29.1494C445.181 24.8288 439.603 23.2161 433.537 24.5245ZM440.701 27.8411C445.699 29.1494 449.723 33.5614 451.217 39.4339C451.552 40.7118 451.735 41.8681 451.643 42.0202C451.43 42.3549 422.351 42.3853 422.137 42.0506C421.863 41.6247 422.839 38.0951 423.662 36.4216C427.075 29.6363 434.025 26.1371 440.701 27.8411Z" fill="#FF0100"/>
<path d="M471.395 24.4939C467.311 25.3763 464.141 27.5671 462.556 30.5794C461.824 31.9182 461.733 32.4355 461.733 35.1435C461.733 37.8516 461.824 38.3384 462.556 39.7381C463.531 41.6245 465.146 43.0546 467.189 43.9675C469.261 44.8498 470.877 45.215 476.516 45.9452C479.137 46.2799 481.942 46.7363 482.734 46.9798C488.068 48.5924 489.714 54.0389 486.087 58.0858C483.832 60.5808 480.631 61.7675 476.059 61.7675C471.578 61.737 468.652 60.8242 465.086 58.2379L462.769 56.5948L461.55 57.5685C460.91 58.0858 460.361 58.6334 460.361 58.7552C460.361 59.3028 463.714 61.8587 465.695 62.802C468.682 64.2625 470.968 64.8102 474.84 65.0232C480.722 65.297 485.112 63.867 488.373 60.6417C490.781 58.2379 491.574 56.1688 491.391 52.7914C491.238 49.9312 490.324 47.8317 488.556 46.3104C486.209 44.2109 483.771 43.4502 477.004 42.5982C471.273 41.868 470.176 41.5941 468.195 40.5292C466.061 39.3729 465.086 37.6081 465.116 34.9305C465.116 33.2266 465.268 32.6789 466.03 31.4618C469.292 26.1674 479.656 25.9849 487.093 31.0663C487.794 31.5531 488.465 31.9486 488.617 31.9486C489.013 31.9182 490.598 29.484 490.446 29.0885C490.233 28.5712 486.026 26.2587 483.953 25.5285C479.96 24.0984 475.053 23.7028 471.395 24.4939Z" fill="#FF0100"/>
<path d="M37.2809 25.1329C37.2809 25.4981 51.6985 60.4895 52.3082 61.5545C52.6739 62.2239 53.5274 63.0758 54.2285 63.4714C55.2953 64.1104 55.844 64.2017 58.3434 64.2017H61.2087L69.2862 44.8499C73.7365 34.2003 77.4247 25.3459 77.4552 25.1938C77.5162 25.0416 75.1996 24.9808 72.1819 25.0112L66.7868 25.1025L62.1536 37.4864C59.6237 44.3022 57.4595 49.9312 57.368 50.0225C57.2766 50.1138 55.5087 45.5801 53.436 39.9206C51.3632 34.2916 49.2905 28.6016 48.8028 27.2933L47.8884 24.9504H42.5846C39.6584 24.9504 37.2809 25.0416 37.2809 25.1329Z" fill="#FF0100"/>
<path d="M80.8691 44.576V64.2017H86.2034H91.5376V44.576V24.9504H86.2034H80.8691V44.576Z" fill="#FF0100"/>
<path d="M308.564 44.576V64.2017H310.241H311.917V44.576V24.9504H310.241H308.564V44.576Z" fill="#FF0100"/>
<path d="M363.126 44.576V64.2017H364.802H366.479V44.576V24.9504H364.802H363.126V44.576Z" fill="#FF0100"/>
<path d="M545.678 56.2297C546.349 57.0208 547.934 58.6943 549.183 59.9418C550.464 61.1893 551.5 62.3151 551.5 62.4368C551.5 62.589 544.825 62.6803 536.686 62.6803C524.128 62.6803 521.903 62.7411 522.207 63.1062C522.634 63.6235 524.585 64.1408 527.115 64.3538C533.851 64.9927 537.143 66.2403 545.465 71.2608C553.39 76.0379 558.419 78.1069 564.912 79.2936C567.838 79.8413 577.043 80.2064 578.811 79.8717L580 79.6587L577.104 78.6242C569.484 75.9162 560.37 70.2871 553.329 63.9278L551.957 62.6803L558.145 62.7411C561.528 62.802 564.302 62.7715 564.302 62.7107C564.302 62.6498 563.967 62.0109 563.54 61.311C561.681 58.1162 555.676 55.9254 546.074 54.9517L544.459 54.7996L545.678 56.2297Z" fill="#FF0100"/>
</svg>
