<svg width="525" height="80" viewBox="0 0 525 80" fill="none" xmlns="http://www.w3.org/2000/svg">
<mask id="mask0_784_111" style="mask-type:luminance" maskUnits="userSpaceOnUse" x="0" y="0" width="76" height="80">
<path fill-rule="evenodd" clip-rule="evenodd" d="M0 0H75.8191V80H0V0Z" fill="white"/>
</mask>
<g mask="url(#mask0_784_111)">
<path fill-rule="evenodd" clip-rule="evenodd" d="M5.28162 59.6401L4.96136 59.8604C11.4832 71.8802 23.8265 80.0003 37.9097 80.0003C58.8552 80.0003 75.8195 62.0801 75.8195 40.0004C75.8195 33.9199 73.2989 28.8002 70.3182 24.9201C66.3572 19.7599 60.7158 17.2801 55.0943 17.24C50.4532 17.2002 45.6523 18.7602 42.2708 21.82C38.4098 25.32 37.5497 29.8203 36.5495 37.1201C35.4494 45.1202 29.0076 50.6402 20.7256 50.6402C10.0027 50.6402 3.36122 44.0403 3.80109 33.9401C3.84131 33.24 3.90112 32.5404 4.02129 31.8605C6.04172 19.9404 18.8653 7.64044 38.15 7.68014C51.0932 7.68014 60.8156 10.5801 70.5383 20.36L70.8587 20.1405C64.3368 8.12041 52.0136 0 37.9097 0C16.9844 0 0 17.9199 0 40.0004C0 46.0802 2.52064 51.2002 5.5018 55.08C9.44262 60.2401 15.1044 62.6998 20.7256 62.7603C25.3668 62.8201 30.168 61.2399 33.5487 58.1801C37.4101 54.6801 38.2702 50.1803 39.2702 42.8803C40.3706 34.8799 46.832 29.3599 55.0943 29.3599C65.8369 29.3599 72.4788 35.96 72.0384 46.06C71.9989 46.7601 71.9383 47.4602 71.8189 48.1404C69.7581 60.0602 56.9951 72.3603 37.67 72.3199C24.7265 72.3199 15.0043 69.4202 5.28162 59.6401Z" fill="#051766"/>
</g>
<path fill-rule="evenodd" clip-rule="evenodd" d="M147.143 59.7256C148.328 60.9755 149.409 61.9601 150.384 62.6799H144.22C142.06 62.6799 140.175 62.2982 138.565 61.5362C136.954 60.7737 135.388 59.4617 133.862 57.5975L118.549 38.4764L138.311 17.3223H148.478L128.652 38.0953L142.441 54.3578C144.389 56.6876 145.957 58.477 147.143 59.7256ZM108.191 62.6799H117.214V17.3223H108.191V62.6799Z" fill="#051766"/>
<path fill-rule="evenodd" clip-rule="evenodd" d="M182.028 54.4199C184.273 53.1495 186.032 51.2864 187.302 48.8294C188.573 46.3738 189.209 43.4299 189.209 39.9995C189.209 36.5691 188.573 33.6258 187.302 31.1696C186.032 28.7137 184.273 26.8495 182.028 25.5792C179.782 24.3089 177.22 23.6736 174.34 23.6736C171.416 23.6736 168.832 24.3089 166.587 25.5792C164.341 26.8495 162.584 28.7137 161.313 31.1696C160.042 33.6258 159.407 36.5691 159.407 39.9995C159.407 43.4299 160.042 46.3738 161.313 48.8294C162.584 51.2864 164.341 53.1495 166.587 54.4199C168.832 55.6902 171.416 56.3255 174.34 56.3255C177.22 56.3255 179.782 55.6902 182.028 54.4199ZM161.949 60.4864C158.264 58.5176 155.372 55.7542 153.275 52.1963C151.179 48.639 150.13 44.5736 150.13 39.9995C150.13 35.4255 151.179 31.3601 153.275 27.8027C155.372 24.2448 158.264 21.4815 161.949 19.5121C165.634 17.5433 169.764 16.5586 174.34 16.5586C178.872 16.5586 182.981 17.5433 186.667 19.5121C190.352 21.4815 193.243 24.2561 195.34 27.8342C197.437 31.4136 198.486 35.4683 198.486 39.9995C198.486 44.5316 197.437 48.5865 195.34 52.1643C193.243 55.7437 190.352 58.5176 186.667 60.4864C182.981 62.4558 178.872 63.4405 174.34 63.4405C169.764 63.4405 165.634 62.4558 161.949 60.4864Z" fill="#051766"/>
<path fill-rule="evenodd" clip-rule="evenodd" d="M248.62 62.6799H242.902C240.571 62.6799 238.601 62.2775 236.992 61.4728C235.382 60.6686 233.899 59.3767 232.544 57.5975L218.819 39.1749H222.949C226.338 39.1749 228.9 38.53 230.638 37.2376C232.374 35.9466 233.243 34.0514 233.243 31.5519C233.243 29.0965 232.385 27.2751 230.67 26.0887C228.954 24.9036 226.317 24.31 222.759 24.31H217.104V62.6799H208.08V17.3223H224.601C228.201 17.3223 231.347 17.8728 234.038 18.9743C236.727 20.0759 238.792 21.6529 240.233 23.707C241.672 25.7613 242.393 28.1643 242.393 30.9169C242.393 33.9664 241.513 36.6246 239.757 38.8893C237.998 41.1551 235.531 42.8388 232.354 43.9397L240.677 54.3578C243.515 57.9152 246.163 60.6898 248.62 62.6799Z" fill="#051766"/>
<path fill-rule="evenodd" clip-rule="evenodd" d="M284.076 55.5647V62.6799H254.212V17.3223H283.441V24.437H263.234V35.7448H280.202V42.7326H263.234V55.5647H284.076Z" fill="#051766"/>
<path fill-rule="evenodd" clip-rule="evenodd" d="M319.15 46.6081L311.908 29.9007L304.663 46.6081H319.15ZM336.689 62.6796H331.289C329.508 62.6796 328.026 62.2673 326.839 61.4413C325.653 60.6156 324.593 59.1446 323.662 57.0262L322.137 53.4689H301.677L297.673 62.6796H289.158L310.001 17.3223H314.956L331.16 52.5157C333.45 57.4706 335.293 60.8598 336.689 62.6796Z" fill="#051766"/>
<path fill-rule="evenodd" clip-rule="evenodd" d="M383.202 17.3223V62.6799H378.247L350.541 32.8228V62.6799H342.788V17.3223H347.746L375.449 47.1794V17.3223H383.202Z" fill="#051766"/>
<path fill-rule="evenodd" clip-rule="evenodd" d="M437.466 46.6081L430.221 29.9007L422.979 46.6081H437.466ZM455.005 62.6796H449.603C447.824 62.6796 446.339 62.2673 445.153 61.4413C443.969 60.6156 442.909 59.1446 441.978 57.0262L440.453 53.4689H419.993L415.989 62.6796H407.474L428.316 17.3223H433.272L449.476 52.5157C451.763 57.4706 453.606 60.8598 455.005 62.6796Z" fill="#051766"/>
<path fill-rule="evenodd" clip-rule="evenodd" d="M461.104 62.6796H470.127V17.3223H461.104V62.6796Z" fill="#051766"/>
<path fill-rule="evenodd" clip-rule="evenodd" d="M524.263 62.6799H518.546C516.216 62.6799 514.244 62.2775 512.635 61.4728C511.023 60.6686 509.541 59.3767 508.188 57.5975L494.462 39.1749H498.591C501.981 39.1749 504.542 38.53 506.28 37.2376C508.018 35.9466 508.887 34.0514 508.887 31.5519C508.887 29.0965 508.029 27.2751 506.313 26.0887C504.596 24.9036 501.96 24.31 498.4 24.31H492.745V62.6799H483.724V17.3223H500.243C503.845 17.3223 506.991 17.8728 509.681 18.9743C512.371 20.0759 514.435 21.6529 515.877 23.707C517.316 25.7613 518.037 28.1643 518.037 30.9169C518.037 33.9664 517.157 36.6246 515.398 38.8893C513.641 41.1551 511.174 42.8388 507.997 43.9397L516.321 54.3578C519.159 57.9152 521.806 60.6898 524.263 62.6799Z" fill="#051766"/>
</svg>
