<svg width="24" height="24" viewBox="0 0 24 24" fill="none" xmlns="http://www.w3.org/2000/svg">
  <path d="M4 16C4 16.88 4.39 17.67 5 18.22V20C5 20.55 5.45 21 6 21H7C7.55 21 8 20.55 8 20V19H16V20C16 20.55 16.45 21 17 21H18C18.55 21 19 20.55 19 20V18.22C19.61 17.67 20 16.88 20 16V6C20 3.79 18.21 2 16 2H8C5.79 2 4 3.79 4 6V16Z" stroke="currentColor" stroke-width="2" stroke-linecap="round" stroke-linejoin="round"/>
  <path d="M16 16C16 17.1 15.1 18 14 18H10C8.9 18 8 17.1 8 16V8H16V16Z" stroke="currentColor" stroke-width="2" stroke-linecap="round" stroke-linejoin="round"/>
  <circle cx="7.5" cy="14.5" r="1.5" fill="currentColor"/>
  <circle cx="16.5" cy="14.5" r="1.5" fill="currentColor"/>
  <path d="M8 8H16" stroke="currentColor" stroke-width="2" stroke-linecap="round" stroke-linejoin="round"/>
</svg> 