<?xml version="1.0" encoding="utf-8"?>
<!-- Generator: Adobe Illustrator 25.4.1, SVG Export Plug-In . SVG Version: 6.00 Build 0)  -->
<svg version="1.1" id="Layer_1" xmlns="http://www.w3.org/2000/svg" xmlns:xlink="http://www.w3.org/1999/xlink" x="0px" y="0px"
	 viewBox="0 0 371.8 80" style="enable-background:new 0 0 371.8 80;" xml:space="preserve">
<style type="text/css">
	.fc62e684{fill:#005EB8;}
	.ued83117{fill:#014FB7;}
	.ebe4d817{fill:#0077C8;}
	.l7640555{fill:#0067C7;}
	.nf12a4cc{fill:#00A3E0;}
	.ga1211a4{fill:#0195DF;}
	.x2766f6d{fill:#71C5E8;}
	.w43fd7b3{fill:#082C88;}
	.h55e6fc9{fill:#FFFFFF;}
</style>
<g>
	<g id="Group_6692" transform="translate(-50.24 -10.601)">
		<g id="Group_6680" transform="translate(50.24 10.601)">
			<path id="Path_5056" class="fc62e684" d="M75.3,35.6c-1.8-0.9-14.3-4.2-24.5-5.9c-3.4-0.7-6.8-1-10.3-1.1c6.2,0.3,11,5.3,11,11.5l0,0
				c0,0.2,0,0.5,0,0.7c-0.1,3.4-0.5,6.7-1.2,10l29.7-7c0-0.3,0-0.5,0-0.8C80,39.8,78.2,36.9,75.3,35.6z"/>
			<path id="Path_5057" class="ued83117" d="M51.6,40v10.5l-1.4,0.3L51.6,40"/>
			<path id="Path_5058" class="ebe4d817" d="M40,51.5L40,51.5c-0.4,0-0.8,0-1.2-0.1c-3.2-0.2-6.4-0.5-9.6-1.1l7,29.6c0.3,0,0.5,0,0.8,0
				c3.1,0,6-1.8,7.3-4.7c0.9-1.8,4.2-14.3,5.9-24.5c0.6-3.3,1-6.7,1.2-10C51.1,46.8,46.1,51.5,40,51.5z"/>
			<path id="Path_5059" class="l7640555" d="M40,51.5H29.5l-0.3-1.4L40,51.5"/>
			<path id="Path_5060" class="nf12a4cc" d="M28.5,40C28.5,40,28.5,40,28.5,40c0-0.2,0-0.4,0-0.6c0.1-3.4,0.5-6.8,1.2-10.2L0,36.2
				c0,0.3,0,0.5,0,0.8c0,3.1,1.8,6,4.7,7.3c1.8,0.9,14.3,4.2,24.5,5.9c3.2,0.6,6.4,1,9.6,1.1C33,50.8,28.5,45.9,28.5,40z"/>
			<path id="Path_5061" class="ga1211a4" d="M28.5,40V29.5l1.4-0.3L28.5,40"/>
			<path id="Path_5062" class="x2766f6d" d="M43.8,0c-0.3,0-0.5,0-0.8,0c-3.1,0-6,1.8-7.3,4.7c-0.9,1.8-4.2,14.3-5.9,24.5
				c-0.6,3.4-1,6.8-1.2,10.2c0.3-6.1,5.4-10.9,11.5-10.9l0,0c0.2,0,0.3,0,0.5,0c3.5,0.1,6.9,0.5,10.3,1.1L43.8,0z"/>
			<path id="Path_5063" class="w43fd7b3" d="M40.2,28.4H40c-6.4,0-11.6,5.2-11.6,11.5v0c0,6.3,5.1,11.5,11.4,11.5H40
				c6.4,0,11.6-5.2,11.6-11.5v0C51.6,33.6,46.5,28.5,40.2,28.4z"/>
			<path id="Path_5064" class="h55e6fc9" d="M40,46.5c-2.2-0.1-4.3-1.3-5.3-3.2c-13.4-1-27.9-3.1-28.1-3.1c-0.3,0-0.3-0.3-0.3-0.4
				c0-0.2,0.1-0.4,0.4-0.4c0,0,0,0,0,0l27.2,0.6l0,0c-0.1-3,1.9-5.7,4.8-6.4l0.9-11.2c0-0.2,0.2-0.4,0.4-0.4c0,0,0,0,0,0l0,0
				c0.2,0,0.4,0.2,0.4,0.4c0,0,0,0,0,0l1,11.2c2.9,0.8,4.8,3.4,4.7,6.4l0,0l27.2-0.6c0.2,0,0.4,0.2,0.4,0.4c0,0,0,0,0,0
				c0,0.2-0.1,0.4-0.3,0.4c-0.2,0-14.7,2-28.1,3C44.3,45.2,42.3,46.5,40,46.5z"/>
		</g>
	</g>
	<g>
		<path class="w43fd7b3" d="M113.7,61.1c-2.6,0-4.8-0.3-6.7-1s-3.3-1.6-4.4-2.8s-1.8-2.7-2.3-4.3c-0.5-1.6-0.7-3.5-0.7-5.7V32.7
			c0-2.2,0.2-4.2,0.7-5.8c0.5-1.6,1.2-3.1,2.3-4.3c1.1-1.2,2.5-2.2,4.3-2.8c1.8-0.6,4.1-0.9,6.7-0.9c2.5,0,4.7,0.3,6.4,0.8
			s3.2,1.4,4.2,2.5c1,1.1,1.7,2.3,2.2,3.7c0.4,1.4,0.7,3,0.7,4.8v3.6H117v-4.1c0-0.6,0-1.1,0-1.5c0-0.3-0.1-0.8-0.2-1.3
			c-0.1-0.5-0.3-0.9-0.5-1.2c-0.2-0.3-0.5-0.5-1-0.7c-0.5-0.2-1-0.3-1.6-0.3s-1.2,0.1-1.6,0.3c-0.5,0.2-0.8,0.5-1,0.7
			c-0.2,0.3-0.4,0.7-0.6,1.2c-0.1,0.5-0.2,1-0.3,1.4c0,0.4,0,0.9,0,1.5v19.1c0,1.7,0.2,2.9,0.7,3.8c0.5,0.9,1.4,1.3,2.8,1.3
			c0.6,0,1.2-0.1,1.6-0.3c0.4-0.2,0.8-0.4,1-0.7c0.2-0.3,0.4-0.7,0.5-1.2c0.1-0.5,0.2-1,0.2-1.3c0-0.4,0-0.9,0-1.5v-4.3h10.1v3.5
			c0,1.5-0.1,2.8-0.4,4c-0.3,1.2-0.7,2.3-1.3,3.4c-0.6,1-1.4,1.9-2.5,2.6c-1,0.7-2.3,1.3-3.9,1.7C117.5,60.9,115.7,61.1,113.7,61.1z
			"/>
		<path class="w43fd7b3" d="M153.7,61.1c-2.6,0-4.8-0.3-6.6-0.9c-1.8-0.6-3.3-1.5-4.4-2.7c-1.1-1.2-1.9-2.6-2.3-4.2
			c-0.5-1.6-0.7-3.5-0.7-5.7V32.4c0-2.2,0.2-4.1,0.7-5.7c0.5-1.6,1.3-3,2.3-4.2c1.1-1.2,2.5-2.1,4.4-2.7c1.8-0.6,4-0.9,6.6-0.9
			c5.1,0,8.7,1.1,10.9,3.4s3.3,5.6,3.3,10.1v15.1c0,4.5-1.1,7.8-3.3,10.1C162.4,59.9,158.8,61.1,153.7,61.1z M152.1,54.4
			c0.4,0.2,1,0.3,1.6,0.3c0.6,0,1.2-0.1,1.6-0.3c0.5-0.2,0.8-0.4,1-0.7c0.2-0.3,0.4-0.7,0.6-1.1s0.2-0.9,0.3-1.3
			c0-0.4,0.1-0.9,0.1-1.4V30.1c0-0.5,0-1-0.1-1.4c0-0.4-0.1-0.8-0.3-1.3c-0.1-0.5-0.3-0.8-0.6-1.1c-0.2-0.3-0.6-0.5-1-0.7
			c-0.5-0.2-1-0.3-1.6-0.3c-0.6,0-1.2,0.1-1.6,0.3s-0.8,0.4-1,0.7c-0.2,0.3-0.4,0.6-0.6,1.1c-0.1,0.5-0.2,0.9-0.2,1.3
			c0,0.4,0,0.9,0,1.4v19.7c0,0.6,0,1.1,0,1.4c0,0.4,0.1,0.8,0.2,1.3c0.1,0.5,0.3,0.8,0.6,1.1C151.3,53.9,151.7,54.2,152.1,54.4z"/>
		<path class="w43fd7b3" d="M180.1,60.7V19.8h8.3l11,19.6V19.8h9.8v40.9h-8l-11.1-21.2v21.2L180.1,60.7L180.1,60.7z"/>
		<polygon class="w43fd7b3" points="251.2,19.7 221.5,19.7 221.5,28.4 231.5,28.4 231.5,60.7 241.3,60.7 241.3,28.4 251.2,28.4 		"/>
		<path class="w43fd7b3" d="M275.1,61.1c-2.6,0-4.8-0.3-6.6-0.9s-3.3-1.5-4.4-2.7c-1.1-1.2-1.9-2.6-2.3-4.2c-0.5-1.6-0.7-3.5-0.7-5.7
			V32.4c0-2.2,0.2-4.1,0.7-5.7c0.5-1.6,1.3-3,2.3-4.2c1.1-1.2,2.5-2.1,4.4-2.7c1.8-0.6,4-0.9,6.6-0.9c5.1,0,8.7,1.1,10.9,3.4
			s3.3,5.6,3.3,10.1v15.1c0,4.5-1.1,7.8-3.3,10.1C283.8,59.9,280.2,61.1,275.1,61.1z M273.6,54.4c0.4,0.2,1,0.3,1.6,0.3
			c0.6,0,1.2-0.1,1.6-0.3c0.5-0.2,0.8-0.4,1-0.7c0.2-0.3,0.4-0.7,0.6-1.1c0.1-0.5,0.2-0.9,0.3-1.3c0-0.4,0.1-0.9,0.1-1.4V30.1
			c0-0.5,0-1-0.1-1.4c0-0.4-0.1-0.8-0.3-1.3c-0.1-0.5-0.3-0.8-0.6-1.1c-0.2-0.3-0.6-0.5-1-0.7c-0.5-0.2-1-0.3-1.6-0.3
			s-1.2,0.1-1.6,0.3c-0.4,0.2-0.8,0.4-1,0.7c-0.2,0.3-0.4,0.6-0.6,1.1c-0.1,0.5-0.2,0.9-0.2,1.3c0,0.4,0,0.9,0,1.4v19.7
			c0,0.6,0,1.1,0,1.4c0,0.4,0.1,0.8,0.2,1.3c0.1,0.5,0.3,0.8,0.6,1.1C272.8,53.9,273.1,54.2,273.6,54.4z"/>
		<path class="w43fd7b3" d="M329.9,19.7v12.7v15.1c0,4.5-1.1,7.8-3.3,10.1c-2.2,2.3-5.8,3.4-10.9,3.4c-2.6,0-4.8-0.3-6.6-0.9
			c-1.8-0.6-3.3-1.5-4.4-2.7c-1.1-1.2-1.9-2.6-2.3-4.2c-0.5-1.6-0.7-3.5-0.7-5.7V32.4l0-12.7h10.6v30.1c0,0.6,0,1.1,0,1.4
			c0,0.4,0.1,0.8,0.2,1.3c0.1,0.5,0.3,0.8,0.6,1.1c0.2,0.3,0.6,0.5,1,0.7c0.4,0.2,1,0.3,1.6,0.3c0.6,0,1.2-0.1,1.6-0.3
			c0.5-0.2,0.8-0.4,1-0.7c0.2-0.3,0.4-0.7,0.6-1.1c0.1-0.5,0.2-0.9,0.3-1.3c0-0.4,0.1-0.9,0.1-1.4V19.7H329.9z"/>
		<path class="w43fd7b3" d="M342.2,60.7V19.8h13c2,0,3.8,0.1,5.3,0.3c1.6,0.2,3,0.5,4.4,1c1.4,0.5,2.5,1.1,3.4,2c0.9,0.8,1.6,1.8,2.1,3.1
			s0.7,2.7,0.7,4.4c0,2.7-0.4,4.8-1.3,6.5c-0.8,1.6-2.4,2.9-4.6,3.8l6.6,19.8h-10.9l-4.9-17l-3.3,0v16.9H342.2z M352.7,37.2h2.7
			c2.1,0,3.7-0.5,4.5-1.4c0.9-1,1.3-2.4,1.3-4.3c0-1.9-0.4-3.3-1.2-4.2c-0.8-0.9-2.2-1.4-4.1-1.4h-3.2V37.2L352.7,37.2z"/>
	</g>
</g>
</svg>
