<svg width="120" height="40" viewBox="0 0 120 40" fill="none" xmlns="http://www.w3.org/2000/svg">
  <rect width="120" height="40" rx="8" fill="#000000"/>
  <path d="M30 12.5C30.8 11.4 31.4 9.8 31.2 8.2C29.8 8.3 28.2 9.2 27.4 10.3C26.6 11.3 26 12.9 26.2 14.5C27.8 14.6 29.2 13.6 30 12.5Z" fill="white"/>
  <path d="M35 20.5C34.8 20.3 32.6 19.2 30.2 19.2C27.4 19.2 25 20.8 25 23.2C25 25.6 27.4 27.2 30.2 27.2C32.6 27.2 34.8 26.1 35 25.9V28.8C34.8 28.9 32.6 29.8 30.2 29.8C26.2 29.8 23 27.2 23 23.2C23 19.2 26.2 16.6 30.2 16.6C32.6 16.6 34.8 17.5 35 17.6V20.5Z" fill="white"/>
  <path d="M40 16.8H37.8V28.8H40C42.8 28.8 45 26.6 45 22.8C45 19 42.8 16.8 40 16.8ZM40 26.8H39.8V18.8H40C41.8 18.8 43 20 43 22.8C43 25.6 41.8 26.8 40 26.8Z" fill="white"/>
  <path d="M50 16.8H47.8V28.8H50C52.8 28.8 55 26.6 55 22.8C55 19 52.8 16.8 50 16.8ZM50 26.8H49.8V18.8H50C51.8 18.8 53 20 53 22.8C53 25.6 51.8 26.8 50 26.8Z" fill="white"/>
  <path d="M60 16.8H57.8V28.8H60C62.8 28.8 65 26.6 65 22.8C65 19 62.8 16.8 60 16.8ZM60 26.8H59.8V18.8H60C61.8 18.8 63 20 63 22.8C63 25.6 61.8 26.8 60 26.8Z" fill="white"/>
  <path d="M70 16.8H67.8V28.8H70C72.8 28.8 75 26.6 75 22.8C75 19 72.8 16.8 70 16.8ZM70 26.8H69.8V18.8H70C71.8 18.8 73 20 73 22.8C73 25.6 71.8 26.8 70 26.8Z" fill="white"/>
  <path d="M80 16.8H77.8V28.8H80C82.8 28.8 85 26.6 85 22.8C85 19 82.8 16.8 80 16.8ZM80 26.8H79.8V18.8H80C81.8 18.8 83 20 83 22.8C83 25.6 81.8 26.8 80 26.8Z" fill="white"/>
  <path d="M90 16.8H87.8V28.8H90C92.8 28.8 95 26.6 95 22.8C95 19 92.8 16.8 90 16.8ZM90 26.8H89.8V18.8H90C91.8 18.8 93 20 93 22.8C93 25.6 91.8 26.8 90 26.8Z" fill="white"/>
  <path d="M100 16.8H97.8V28.8H100C102.8 28.8 105 26.6 105 22.8C105 19 102.8 16.8 100 16.8ZM100 26.8H99.8V18.8H100C101.8 18.8 103 20 103 22.8C103 25.6 101.8 26.8 100 26.8Z" fill="white"/>
  <path d="M110 16.8H107.8V28.8H110C112.8 28.8 115 26.6 115 22.8C115 19 112.8 16.8 110 16.8ZM110 26.8H109.8V18.8H110C111.8 18.8 113 20 113 22.8C113 25.6 111.8 26.8 110 26.8Z" fill="white"/>
</svg> 