<svg width="467" height="80" viewBox="0 0 467 80" fill="none" xmlns="http://www.w3.org/2000/svg">
<g>
<path d="M54.8391 30.1599C61.4838 30.1599 67.6483 30.72 73.4124 31.84L71.491 33.6799C66.3674 32.7199 61.0835 32.24 55.2394 32.24H53.7183L52.8377 33.92H54.1986C59.8026 33.92 65.3266 34.3999 69.8899 35.2L68.0486 36.9599C63.9656 36.2399 59.4825 35.92 53.4781 35.92H51.7969L50.7561 37.68C52.1972 37.6 53.318 37.6 54.1986 37.6C58.4417 37.6 63.085 37.9199 66.4474 38.4799L64.6061 40.24C61.4038 39.7599 58.6018 39.5999 54.3588 39.5999C52.7576 39.5999 50.3559 39.68 49.2351 39.7599L47.794 41.52C49.7955 41.36 51.7169 41.28 53.8784 41.28C56.5203 41.28 59.6425 41.4399 62.9249 41.84L61.0035 43.6799C58.7619 43.4399 56.3602 43.2799 54.679 43.2799C48.3545 43.2799 43.7912 44.32 40.1086 46.56C44.5118 51.28 52.1172 54.08 60.6033 54.08H61.4038L58.0414 57.28C45.2323 54.7199 36.0257 50.72 25.6983 43.36C17.7727 37.68 14.6505 35.76 7.12504 32.3199L7.04503 30L12.649 32.3199L15.0507 30.4799L30.7419 37.6L29.0607 38.88L21.2952 35.5199L20.2544 36.48L23.6168 38.4C27.2193 40.3199 29.893 41.36 32.6788 41.36C37.9884 41.36 43.1507 37.44 46.3531 30.56C49.0749 30.3199 51.957 30.1599 54.8391 30.1599ZM80.0571 40C80.0571 62.08 62.2043 80 40.0286 80C17.9328 80 0 62.08 0 40C0 17.84 17.9328 0 40.0286 0C62.2043 0 80.0571 17.84 80.0571 40ZM77.175 40C77.175 19.52 60.5231 2.87994 40.0286 2.87994C19.614 2.87994 2.882 19.52 2.882 40C2.882 60.4 19.614 77.12 40.0286 77.12C60.5231 77.12 77.175 60.4 77.175 40ZM346.557 41.4479V66.6668H336.035V61.8666C332.832 65.8287 329.173 67.8097 322.996 67.8097C313.924 67.8097 309.654 62.4766 309.654 55.5433C309.654 48.0765 314.152 43.9619 324.065 42.8952L331.384 42.1334C334.204 41.8288 335.349 41.1432 335.349 39.3142C335.349 37.2576 333.366 35.8858 329.173 35.8858C324.446 35.8858 323.226 37.4858 323.073 39.6193H311.865C312.323 31.4671 317.812 27.1241 329.173 27.1241C340.381 27.1241 346.557 30.8573 346.557 41.4479ZM335.577 49.3718C334.891 49.6002 333.671 49.8285 332.527 49.9811L325.894 50.8957C322.006 51.4287 320.786 53.1049 320.786 55.086C320.786 57.6764 322.539 59.048 325.513 59.048C331.612 59.048 335.577 55.9241 335.577 51.7333V49.3718ZM467 41.4479V66.6668H456.478V61.8666C453.276 65.8287 449.616 67.8097 443.441 67.8097C434.367 67.8097 430.098 62.4766 430.098 55.5433C430.098 48.0765 434.596 43.9624 444.508 42.8952L451.827 42.1334C454.648 41.8288 455.792 41.1432 455.792 39.3148C455.792 37.2576 453.81 35.8863 449.616 35.8863C444.889 35.8863 443.67 37.4858 443.517 39.6193H432.309C432.766 31.4671 438.256 27.1241 449.616 27.1241C460.824 27.1241 467 30.8578 467 41.4479ZM456.021 49.3718C455.335 49.6002 454.115 49.8291 452.971 49.9811L446.337 50.8957C442.449 51.4287 441.229 53.1049 441.229 55.086C441.229 57.6764 442.983 59.048 445.956 59.048C452.056 59.048 456.021 55.9241 456.021 51.7339V49.3718ZM373.178 27.1241C367.002 27.1241 363.724 29.7146 362.123 32.6864V28.2669H351.296V66.6668H362.809V44.7237C362.809 39.6193 365.401 37.3338 369.747 37.3338C374.551 37.3338 376.762 39.6193 376.762 44.7237V66.6668H388.275V44.1907C388.275 31.543 383.167 27.1241 373.178 27.1241ZM145.78 13.3334H133.428V66.6668H168.73V55.9241H145.78V13.3334ZM412.562 42.5906L408.52 42.0578C405.242 41.6004 404.327 40.686 404.327 39.0102C404.327 37.3338 405.776 36.0384 409.588 36.0384C413.476 36.0384 414.696 37.4102 415.077 39.6193H426.285C425.752 31.3145 420.109 27.1241 409.588 27.1241C398.228 27.1241 392.814 32.5336 392.814 39.8478C392.814 47.4672 397.694 50.7431 406.157 51.8859L410.198 52.4194C414.163 52.9529 415.688 53.8669 415.688 55.8479C415.688 57.981 413.858 59.048 409.359 59.048C404.937 59.048 402.955 57.6764 402.65 54.8572H391.29C391.518 62.5528 396.169 67.8097 409.359 67.8097C421.482 67.8097 427.201 63.0099 427.201 54.9334C427.201 46.9337 422.321 43.886 412.562 42.5906ZM291.355 27.1241C285.942 27.1241 282.816 29.1809 280.833 32.0001V13.4098H269.245V66.6668H280.757V44.7237C280.757 39.6193 283.349 37.3338 287.695 37.3338C292.499 37.3338 294.71 39.6193 294.71 44.7237V66.6668H306.223V44.1907C306.223 31.543 301.115 27.1241 291.355 27.1241ZM196.483 50.2095C196.483 55.3143 193.891 57.6 189.697 57.6C185.047 57.6 182.835 55.3143 182.835 50.2095V28.2669H171.322V50.7431C171.322 63.3904 176.431 67.8097 186.266 67.8097C192.29 67.8097 195.568 65.2194 197.169 62.2476V66.6668H207.996V28.2669H196.483V50.2095ZM257.097 17.0671H245.584V28.2669H239.79V37.6383H245.584V53.8669C245.584 63.162 251.15 67.3524 260.376 67.3524C263.197 67.3524 265.866 66.7432 265.866 66.7432V57.5243C265.866 57.5243 263.959 57.7526 262.587 57.7526C259.232 57.7526 257.097 56.6861 257.097 52.5715V37.6383H265.866V28.2669H257.097V17.0671ZM216.841 26.8195V28.2669H211.046V37.6383H216.841V66.6668H228.353V37.6383H236.817V28.2669H228.353V26.7433C228.353 23.3911 230.259 22.1718 233.843 22.1718C235.216 22.1718 236.817 22.3239 236.817 22.3239V13.0288C236.817 13.0288 234.911 12.5716 231.937 12.5716C222.712 12.5716 216.841 17.5244 216.841 26.8195Z" fill="#05164D"/>
</g>
</svg>
