<?xml version="1.0" encoding="utf-8"?>
<!-- Generator: Adobe Illustrator 25.2.0, SVG Export Plug-In . SVG Version: 6.00 Build 0)  -->
<svg version="1.1" id="RGB_Logos" xmlns="http://www.w3.org/2000/svg" xmlns:xlink="http://www.w3.org/1999/xlink" x="0px" y="0px"
	 viewBox="0 0 396.9 157" style="enable-background:new 0 0 396.9 157;" xml:space="preserve">
<style type="text/css">
	.kae4cba6{fill:#FF6700;}
	.g8323e6a{fill:#FFFFFF;}
</style>
<rect x="0" class="kae4cba6" width="396.9" height="157"/>
<path class="g8323e6a" d="M64.6,73.9c-2.1,0-4.8,0.7-4.8-2.3c0-2.6,2.2-5.3,4.8-5.3c3,0,4.8,2.3,4.8,5.2C69.4,74.4,66.8,73.9,64.6,73.9
	 M79.9,81.6c2.6,0,5-0.7,5-6.1c0-6.1-6.1-16.6-19.8-16.6C53,59,42.4,68,42.4,80.4c0,10.4,7.5,20.9,22,20.9c7.3,0,18.6-4.5,18.6-10.7
	c0-1.5-1.4-4-3.1-4c-1.7,0-4.7,3.6-10.7,3.6c-3.8,0-9-3.4-9-7.4c0-1.4,1.3-1.1,2.2-1.1H79.9z M108.5,82.8c2.3,0,2.2,2,2.2,3.8
	c0,2.4-0.2,5.7-3.3,5.7c-2.3,0-3.5-2.3-3.5-4.4C103.9,85.4,105.8,82.8,108.5,82.8 M128.1,72.8c0-12.1-12.6-13.9-17.2-13.9
	c-7.7,0-21.3,4.4-21.3,11.3c0,2.6,1.9,4.4,4.5,4.4c7.2,0,7.7-8.7,12.5-8.7c3.7,0,3.8,5.6,3.8,8.2c0,2.9-1.1,2.7-3.6,2.7
	c-14.2,0-19.7,7.1-19.7,12.8c0,8,6.7,11.5,13.4,11.5c7.3,0,9.8-4.1,11.7-4.1c2,0,2.2,4.1,8.6,4.1c5.9,0,12.2-5,12.2-9.6
	c0-4.4-4.8,3.4-4.8-10.8V72.8z M160.8,60c-1.2,0-5-1-8.2-1c-8.3,0-14.9,5.1-14.9,13.2c0,13.3,15.8,13.9,15.8,18.6
	c0,1.8-1.5,2.6-3.1,2.6c-4.5,0-7.8-8-11.3-8c-2.3,0-3.1,1.7-3.1,3.8c0,3.1,2,7.7,4,9.9c1.1,1.3,1.9,1.5,3.6,1.5c1,0,2-0.3,3.1-0.3
	c1,0,6.9,1,10.3,1c8.4,0,15.7-5.2,15.7-12.8c0-12.5-17.8-13.5-17.8-18.6c0-1.5,1.4-2.7,2.9-2.7c3.6,0,6.1,6.4,10.7,6.4
	c2.1,0,3.9-1.6,3.9-3.8c0-3.3-3.7-10.7-7.4-10.7C163.6,59,162.3,60,160.8,60 M211,93.4l4.8-13.2c1.1-3.1,2.4-6.7,4.2-9.5
	c2.8-4.8,7.7-2.7,7.7-7.4c0-3.7-6-4.1-8.6-4.1c-2.9,0-10.5,0.5-10.5,4.8c0,2.8,2.6,2.5,2.6,6.1c0,1.9-1.7,7.5-4.1,7.5
	c-1.4,0-4.9-5.7-4.9-8.7c0-1.9,1.8-2.6,1.8-4.8c0-4.6-7.3-4.9-10.3-4.9c-17,0-18.5,3.6-18.5,6c0,3.7,4.6,2.7,6.1,6l11.3,23.6
	c1,2,2.6,5.1,2.6,7.3c0,1.9-1,3.9-3.1,3.9c-3.3,0-1.2-8.5-8.7-8.5c-4.1,0-7.2,3.4-7.2,7.4c0,6.7,6.9,9.7,12.7,9.7
	C201.9,114.6,207,104.1,211,93.4 M266,82.6l0.6-24.9c0.2-6.8,6.5-4.8,6.5-9c0-2.2-1.8-6-17-6c-15.7,0-16.4,5.2-16.4,6.7
	c0,5.4,7.7,0.6,7.3,9.6c-0.6,14.5,3.9,31-5.6,32c-1.9,0.2-3.6-1-3.6-3c0-1,0.6-2.4,0.6-3.8c0-5.1-4.7-8-9.4-8
	c-5.4,0-9.1,4.4-9.1,9.7c0,11.5,14,15.4,23.3,15.4C247.7,101.3,265.5,99.7,266,82.6 M293.6,73.9c-2.1,0-4.9,0.7-4.9-2.3
	c0-2.6,2.2-5.3,4.9-5.3c3,0,4.8,2.3,4.8,5.2C298.3,74.4,295.7,73.9,293.6,73.9 M308.8,81.6c2.6,0,5-0.7,5-6.1
	c0-6.1-6.1-16.6-19.8-16.6c-12.1,0-22.7,9-22.7,21.5c0,10.4,7.5,20.9,22,20.9c7.3,0,18.6-4.5,18.6-10.7c0-1.5-1.5-4-3.1-4
	c-1.7,0-4.7,3.6-10.7,3.6c-3.8,0-9.1-3.4-9.1-7.4c0-1.4,1.3-1.1,2.2-1.1H308.8z M341.8,82.8v-12c0-2.9,0.1-3,3-3h5.6
	c3.1,0,3.7-0.3,3.7-4.9c0-3.6,0-3.9-3.5-3.9H345c-3.8,0-3.1,0.1-3.1-6.6c0-3.7-0.2-3.4-3.4-3.4c-2.4,0-2.3-0.3-4.2,0.9l-18.4,11.7
	c-1,0.6-0.7,1.5-0.7,2.7c0,3.8-0.3,3.5,4,3.5c3.6,0,3.6-0.6,3.6,2.3v16.6c0,12.8,10.3,14.6,14.4,14.6c8.1,0,17.3-4.7,17.3-10
	c0-1.4-1.1-3.7-2.7-3.7c-1.5,0-2.9,1.9-5.4,1.9C344.1,89.5,341.8,88.2,341.8,82.8"/>
</svg>
