<svg width="1049" height="233" viewBox="0 0 1049 233" fill="none" xmlns="http://www.w3.org/2000/svg">
<g clip-path="url(#clip0_737_128)">
<path fill-rule="evenodd" clip-rule="evenodd" d="M1046 204.979L1048.5 200.979C1047.7 200.621 1047.08 200.334 1046.58 200.096C1044.25 199.004 1044.16 198.962 1038 198C1026.5 196 1022 203.962 1022 206.979C1022 209.995 1023 215.479 1030.5 216.979C1039 218.479 1039 220.979 1039 222.979C1039 224.978 1038 227.179 1032 227.979C1026 228.779 1020.67 225.645 1019 223.979L1017 227.979C1019 229.979 1026.25 232.957 1032 232.479C1044 231.479 1044 223.479 1044 223.479C1044 223.479 1045 218.979 1041 216.479C1039.79 215.725 1038 215.062 1036.08 214.353C1031.62 212.711 1026.5 210.82 1026.5 206.979C1026.5 202.479 1033.5 201.979 1038 201.979C1041.6 201.979 1044.83 203.979 1046 204.979ZM893 197.979H887.5L881 231.979H904L905 227.979H886.5L893 197.979ZM778.5 231.979H772.5L795 198.479H799L808.5 231.979H803L800.5 223.479H783.5L778.5 231.979ZM819 231.979L825 198.479H830.5L824.5 231.979H819ZM846 198.479H864L864.198 198.557C866.778 199.584 871.987 201.658 871.5 208.479C871.5 212.979 870.7 218.679 861.5 221.479L868.5 231.979H862.5L857 221.979H847L845 231.979H839L846 198.479ZM922 197.979H927L920.5 231.979H915L922 197.979ZM947.5 197.979H942.5L936 231.979H941.5L946.5 206.479L961.5 231.979H966L972 197.979H967L962.5 223.479H961.5L947.5 197.979ZM1012 197.979L1011.5 202.479H992L990 212.479H1007.5L1007 216.979H989L987 227.479H1007L1006 232.479H981L988 197.979H1012ZM800.5 220H785.5L796 203L800.5 220ZM847 217H859.5C859.5 217 866.25 215 866.5 209.5C866.818 202.5 862 202 862 202H850L847 217Z" fill="#D5132D"/>
<path d="M151.19 0.489571C159.141 -0.611963 190 0.489571 190 0.489571L180.66 47L128.799 28.5719L124 20.8958L133.72 8.7155C136.852 5.20713 143.24 1.5911 151.19 0.489571Z" fill="#BD112C"/>
<path fill-rule="evenodd" clip-rule="evenodd" d="M126.42 71.9716L101.847 48.8484L124.562 21L181 47.1763L172.235 91.0651L126.567 110.411L153.578 46.7429L126.42 71.9716ZM100.579 50.0831L70.7827 86.7079L126.271 110.411L100.579 50.0831ZM126.469 110.488L165.124 127.092L156 172.77H153.349L126.469 110.488ZM68.3755 89.4392L0 173L99.6519 172.992L126.066 110.634L62.4981 137.743L87.6068 110.447L68.3755 89.4392ZM100.943 172.915L126.405 149.318L152.062 172.769L100.943 172.915Z" fill="#E9062B"/>
<path d="M101.848 48.85L101.846 48.8488L101.845 48.8502L101.846 48.8514L101.848 48.85ZM126.42 71.9726L126.419 71.9738L126.42 71.9749L126.421 71.9738L126.42 71.9726ZM124.562 21.0024V21.0006L124.561 21L124.56 21.0012L124.562 21.0024ZM180.998 47.178L181 47.1784V47.1769L180.999 47.1763L180.998 47.178ZM172.233 91.0656L172.234 91.0673L172.235 91.0668V91.0656H172.233ZM126.566 110.411L126.565 110.41L126.562 110.414L126.567 110.413L126.566 110.411ZM153.576 46.7446L153.578 46.7454L153.575 46.7432L153.576 46.7446ZM70.7843 86.7085L70.7825 86.7068L70.7808 86.7091L70.7831 86.7103L70.7843 86.7085ZM100.58 50.0847L100.582 50.084L100.58 50.0811L100.578 50.0835L100.58 50.0847ZM126.27 110.411L126.269 110.413L126.274 110.414L126.272 110.41L126.27 110.411ZM165.122 127.092L165.125 127.093V127.091L165.124 127.09L165.122 127.092ZM126.468 110.488L126.469 110.486L126.464 110.484L126.468 110.488ZM155.998 172.769V172.771H156V172.769H155.998ZM153.347 172.769L153.346 172.77L153.347 172.771V172.769ZM0.00406346 172.998L0.00257536 172.997L0 173H0.00406363L0.00406346 172.998ZM68.3771 89.4398L68.3788 89.4386L68.3771 89.4369L68.3759 89.4386L68.3771 89.4398ZM99.6524 172.99V172.992H99.6536L99.6542 172.991L99.6524 172.99ZM126.066 110.634L126.068 110.635L126.07 110.631L126.065 110.632L126.066 110.634ZM62.5 137.742L62.4988 137.741L62.5012 137.744L62.5 137.742ZM87.6078 110.447L87.609 110.449L87.6101 110.447L87.609 110.446L87.6078 110.447ZM126.404 149.317L126.406 149.316L126.404 149.314L126.403 149.316L126.404 149.317ZM100.943 172.913L100.942 172.912L100.938 172.915H100.943V172.913ZM152.06 172.767V172.769H152.065L152.062 172.766L152.06 172.767ZM101.846 48.8514L126.419 71.9738L126.421 71.9714L101.849 48.8486L101.846 48.8514ZM124.56 21.0012L101.846 48.8488L101.849 48.8512L124.563 21.0036L124.56 21.0012ZM180.999 47.1763L124.562 21.0006L124.561 21.0041L180.997 47.1798L180.999 47.1763ZM172.235 91.0656L181 47.1784L180.996 47.1777L172.231 91.065L172.235 91.0656ZM126.567 110.413L172.234 91.0673L172.233 91.0638L126.565 110.409L126.567 110.413ZM153.574 46.7439L126.565 110.41L126.568 110.412L153.578 46.7454L153.574 46.7439ZM126.421 71.9738L153.577 46.746L153.575 46.7432L126.419 71.9714L126.421 71.9738ZM70.7854 86.7097L100.581 50.0859L100.578 50.0835L70.7825 86.7068L70.7854 86.7097ZM126.271 110.409L70.7849 86.7068L70.7831 86.7103L126.269 110.413L126.271 110.409ZM100.578 50.0855L126.268 110.412L126.272 110.41L100.582 50.084L100.578 50.0855ZM165.124 127.09L126.469 110.486L126.467 110.489L165.122 127.094L165.124 127.09ZM156 172.769L165.125 127.093L165.121 127.091L155.996 172.769H156ZM153.347 172.771H155.998V172.767H153.347V172.771ZM126.467 110.489L153.346 172.77L153.349 172.768L126.47 110.487L126.467 110.489ZM0.00555155 172.999L68.3788 89.4409L68.3759 89.4386L0.00257536 172.997L0.00555155 172.999ZM99.6524 172.988L0.00406334 172.996L0.00406363 173L99.6524 172.992V172.988ZM126.064 110.633L99.6507 172.99L99.6542 172.991L126.068 110.635L126.064 110.633ZM62.5012 137.744L126.067 110.636L126.065 110.632L62.4994 137.74L62.5012 137.744ZM87.6061 110.446L62.4988 137.741L62.5012 137.744L87.609 110.449L87.6061 110.446ZM68.3759 89.4409L87.6061 110.449L87.609 110.446L68.3788 89.4386L68.3759 89.4409ZM126.403 149.316L100.942 172.912L100.945 172.915L126.406 149.318L126.403 149.316ZM152.062 172.766L126.406 149.316L126.403 149.318L152.059 172.768L152.062 172.766ZM100.943 172.915L152.06 172.769V172.765L100.943 172.911V172.915Z" fill="#E9062B"/>
<path fill-rule="evenodd" clip-rule="evenodd" d="M641.5 173H655L674.5 142H740L747 173H759.5L729 56.5H718L641.5 173ZM223.5 57H250L239 111L298.5 57L331.5 57.5L271 111L310.5 173H281L251.5 127.5L232.5 144L226.5 173H199.5L223.5 57ZM341.5 57.5H362.5L392 129L448.5 57.5H471.5L448.5 173H423.5L437.5 104.5L393 160H380.5L357 103.5L343.5 173H318L341.5 57.5ZM539.5 57H529.5L506 173H518L536.5 80L567.5 158.5H572.5L633 81.5L614.5 173H626.5L649 57H638.5L572.5 143L539.5 57ZM810.5 56.5H797L774 173L851.5 173.5L853.5 162.5H788.5L810.5 56.5ZM861 56.5L859.5 68H900.5L879.5 173H892L912.5 68H953L955 57L861 56.5ZM937 173H923L999.5 57H1011L1040.5 172.5H1029L1021 142H956.5L937 173ZM737.5 132H681L721.5 69.5L737.5 132ZM963 132.5H1019.5L1003.5 70L963 132.5Z" fill="#2B2B2B"/>
<path d="M655 173V173.5H655.276L655.423 173.266L655 173ZM641.5 173L641.082 172.726L640.574 173.5H641.5V173ZM674.5 142V141.5H674.224L674.077 141.734L674.5 142ZM740 142L740.488 141.89L740.4 141.5H740V142ZM747 173L746.512 173.11L746.6 173.5H747V173ZM759.5 173V173.5H760.148L759.984 172.873L759.5 173ZM729 56.5003L729.484 56.3737L729.386 56.0003H729V56.5003ZM718 56.5003V56.0003H717.73L717.582 56.2259L718 56.5003ZM250 57.0003L250.49 57.1001L250.612 56.5003H250V57.0003ZM223.5 57.0003V56.5003H223.093L223.01 56.899L223.5 57.0003ZM239 111L238.51 110.9L238.205 112.396L239.336 111.37L239 111ZM298.5 57.0003L298.508 56.5004L298.31 56.4974L298.164 56.63L298.5 57.0003ZM331.5 57.5003L331.831 57.8749L332.798 57.0199L331.508 57.0004L331.5 57.5003ZM271 111L270.669 110.625L270.349 110.908L270.578 111.269L271 111ZM310.5 173V173.5H311.411L310.922 172.731L310.5 173ZM281 173L280.58 173.272L280.728 173.5H281V173ZM251.5 127.5L251.92 127.228L251.607 126.745L251.172 127.122L251.5 127.5ZM232.5 144L232.172 143.622L232.045 143.733L232.01 143.899L232.5 144ZM226.5 173V173.5H226.907L226.99 173.101L226.5 173ZM199.5 173L199.01 172.899L198.886 173.5H199.5V173ZM362.5 57.5003L362.962 57.3096L362.835 57.0003H362.5V57.5003ZM341.5 57.5003V57.0003H341.091L341.01 57.4006L341.5 57.5003ZM392 129L391.538 129.191L391.863 129.98L392.392 129.31L392 129ZM448.5 57.5003V57.0003H448.258L448.108 57.1903L448.5 57.5003ZM471.5 57.5003L471.99 57.5979L472.109 57.0003H471.5V57.5003ZM448.5 173V173.5H448.91L448.99 173.098L448.5 173ZM423.5 173L423.01 172.9L422.887 173.5H423.5V173ZM437.5 104.5L437.99 104.6L437.11 104.187L437.5 104.5ZM393 160V160.5H393.24L393.39 160.313L393 160ZM380.5 160L380.038 160.192L380.166 160.5H380.5V160ZM357 103.5L357.462 103.308L356.825 101.778L356.509 103.405L357 103.5ZM343.5 173V173.5H343.912L343.991 173.095L343.5 173ZM318 173L317.51 172.9L317.388 173.5H318V173ZM529.5 57.0003V56.5003H529.091L529.01 56.901L529.5 57.0003ZM539.5 57.0003L539.967 56.8212L539.844 56.5003H539.5V57.0003ZM506 173L505.51 172.901L505.389 173.5H506V173ZM518 173V173.5H518.41L518.49 173.098L518 173ZM536.5 80.0003L536.965 79.8166L536.341 78.2365L536.01 79.9027L536.5 80.0003ZM567.5 158.5L567.035 158.684L567.16 159H567.5V158.5ZM572.5 158.5V159H572.743L572.893 158.809L572.5 158.5ZM633 81.5003L633.49 81.5994L632.607 81.1914L633 81.5003ZM614.5 173L614.01 172.901L613.889 173.5H614.5V173ZM626.5 173V173.5H626.912L626.991 173.095L626.5 173ZM649 57.0003L649.491 57.0955L649.606 56.5003H649V57.0003ZM638.5 57.0003V56.5003H638.253L638.103 56.6959L638.5 57.0003ZM572.5 143L572.033 143.179L572.353 144.013L572.897 143.304L572.5 143ZM797 56.5003V56.0003H796.589L796.509 56.4035L797 56.5003ZM810.5 56.5003L810.99 56.6019L811.114 56.0003H810.5V56.5003ZM774 173L773.509 172.903L773.392 173.496L773.997 173.5L774 173ZM851.5 173.5L851.497 174L851.917 174.003L851.992 173.589L851.5 173.5ZM853.5 162.5L853.992 162.589L854.099 162H853.5V162.5ZM788.5 162.5L788.01 162.398L787.886 163H788.5V162.5ZM859.5 68.0003L859.004 67.9356L858.931 68.5003H859.5V68.0003ZM861 56.5003L861.003 56.0003L860.561 55.998L860.504 56.4356L861 56.5003ZM900.5 68.0003L900.99 68.0984L901.11 67.5003H900.5V68.0003ZM879.5 173L879.01 172.902L878.89 173.5H879.5V173ZM892 173V173.5H892.412L892.491 173.096L892 173ZM912.5 68.0003V67.5003H912.088L912.009 67.9045L912.5 68.0003ZM953 68.0003V68.5003H953.417L953.492 68.0897L953 68.0003ZM955 57.0003L955.492 57.0897L955.599 56.5035L955.003 56.5003L955 57.0003ZM923 173L922.583 172.725L922.071 173.5H923V173ZM937 173V173.5H937.276L937.423 173.266L937 173ZM999.5 57.0003V56.5003H999.231L999.083 56.725L999.5 57.0003ZM1011 57.0003L1011.48 56.8766L1011.39 56.5003H1011V57.0003ZM1040.5 172.5V173H1041.14L1040.98 172.376L1040.5 172.5ZM1029 172.5L1028.52 172.627L1028.61 173H1029V172.5ZM1021 142L1021.48 141.873L1021.39 141.5H1021V142ZM956.5 142V141.5H956.224L956.077 141.734L956.5 142ZM681 132L680.58 131.728L680.08 132.5H681V132ZM737.5 132V132.5H738.144L737.984 131.876L737.5 132ZM721.5 69.5003L721.984 69.3763L721.701 68.2703L721.08 69.2285L721.5 69.5003ZM1019.5 132.5V133H1020.14L1019.98 132.376L1019.5 132.5ZM963 132.5L962.58 132.228L962.08 133H963V132.5ZM1003.5 70.0003L1003.98 69.8763L1003.7 68.7703L1003.08 69.7285L1003.5 70.0003ZM655 172.5H641.5V173.5H655V172.5ZM674.077 141.734L654.577 172.734L655.423 173.266L674.923 142.266L674.077 141.734ZM740 141.5H674.5V142.5H740V141.5ZM747.488 172.89L740.488 141.89L739.512 142.11L746.512 173.11L747.488 172.89ZM759.5 172.5H747V173.5H759.5V172.5ZM728.516 56.6269L759.016 173.127L759.984 172.873L729.484 56.3737L728.516 56.6269ZM718 57.0003H729V56.0003H718V57.0003ZM641.918 173.274L718.418 56.7747L717.582 56.2259L641.082 172.726L641.918 173.274ZM250 56.5003H223.5V57.5003H250V56.5003ZM239.49 111.1L250.49 57.1001L249.51 56.9005L238.51 110.9L239.49 111.1ZM298.164 56.63L238.664 110.63L239.336 111.37L298.836 57.3706L298.164 56.63ZM331.508 57.0004L298.508 56.5004L298.492 57.5002L331.492 58.0002L331.508 57.0004ZM271.331 111.375L331.831 57.8749L331.169 57.1257L270.669 110.625L271.331 111.375ZM310.922 172.731L271.422 110.731L270.578 111.269L310.078 173.269L310.922 172.731ZM281 173.5H310.5V172.5H281V173.5ZM251.08 127.772L280.58 173.272L281.42 172.728L251.92 127.228L251.08 127.772ZM232.828 144.378L251.828 127.878L251.172 127.122L232.172 143.622L232.828 144.378ZM226.99 173.101L232.99 144.101L232.01 143.899L226.01 172.899L226.99 173.101ZM199.5 173.5H226.5V172.5H199.5V173.5ZM223.01 56.899L199.01 172.899L199.99 173.101L223.99 57.1016L223.01 56.899ZM362.5 57.0003H341.5V58.0003H362.5V57.0003ZM392.462 128.809L362.962 57.3096L362.038 57.691L391.538 129.191L392.462 128.809ZM448.108 57.1903L391.608 128.69L392.392 129.31L448.892 57.8103L448.108 57.1903ZM471.5 57.0003H448.5V58.0003H471.5V57.0003ZM448.99 173.098L471.99 57.5979L471.01 57.4027L448.01 172.902L448.99 173.098ZM423.5 173.5H448.5V172.5H423.5V173.5ZM437.01 104.4L423.01 172.9L423.99 173.1L437.99 104.6L437.01 104.4ZM393.39 160.313L437.89 104.813L437.11 104.187L392.61 159.687L393.39 160.313ZM380.5 160.5H393V159.5H380.5V160.5ZM356.538 103.692L380.038 160.192L380.962 159.808L357.462 103.308L356.538 103.692ZM343.991 173.095L357.491 103.595L356.509 103.405L343.009 172.905L343.991 173.095ZM318 173.5H343.5V172.5H318V173.5ZM341.01 57.4006L317.51 172.9L318.49 173.1L341.99 57.6L341.01 57.4006ZM529.5 57.5003H539.5V56.5003H529.5V57.5003ZM506.49 173.099L529.99 57.0996L529.01 56.901L505.51 172.901L506.49 173.099ZM518 172.5H506V173.5H518V172.5ZM536.01 79.9027L517.51 172.902L518.49 173.098L536.99 80.0979L536.01 79.9027ZM567.965 158.316L536.965 79.8166L536.035 80.184L567.035 158.684L567.965 158.316ZM572.5 158H567.5V159H572.5V158ZM632.607 81.1914L572.107 158.191L572.893 158.809L633.393 81.8092L632.607 81.1914ZM614.99 173.099L633.49 81.5994L632.51 81.4012L614.01 172.901L614.99 173.099ZM626.5 172.5H614.5V173.5H626.5V172.5ZM648.509 56.9051L626.009 172.905L626.991 173.095L649.491 57.0955L648.509 56.9051ZM638.5 57.5003H649V56.5003H638.5V57.5003ZM572.897 143.304L638.897 57.3047L638.103 56.6959L572.103 142.696L572.897 143.304ZM539.033 57.1794L572.033 143.179L572.967 142.821L539.967 56.8212L539.033 57.1794ZM797 57.0003H810.5V56.0003H797V57.0003ZM774.491 173.097L797.491 56.5971L796.509 56.4035L773.509 172.903L774.491 173.097ZM851.503 173L774.003 172.5L773.997 173.5L851.497 174L851.503 173ZM853.008 162.411L851.008 173.411L851.992 173.589L853.992 162.589L853.008 162.411ZM788.5 163H853.5V162H788.5V163ZM810.01 56.3987L788.01 162.398L788.99 162.602L810.99 56.6019L810.01 56.3987ZM859.996 68.065L861.496 56.565L860.504 56.4356L859.004 67.9356L859.996 68.065ZM900.5 67.5003H859.5V68.5003H900.5V67.5003ZM879.99 173.098L900.99 68.0984L900.01 67.9022L879.01 172.902L879.99 173.098ZM892 172.5H879.5V173.5H892V172.5ZM912.009 67.9045L891.509 172.904L892.491 173.096L912.991 68.0961L912.009 67.9045ZM953 67.5003H912.5V68.5003H953V67.5003ZM954.508 56.9109L952.508 67.9109L953.492 68.0897L955.492 57.0897L954.508 56.9109ZM860.997 57.0003L954.997 57.5003L955.003 56.5003L861.003 56.0003L860.997 57.0003ZM923 173.5H937V172.5H923V173.5ZM999.083 56.725L922.583 172.725L923.417 173.275L999.917 57.2756L999.083 56.725ZM1011 56.5003H999.5V57.5003H1011V56.5003ZM1040.98 172.376L1011.48 56.8766L1010.52 57.124L1040.02 172.624L1040.98 172.376ZM1029 173H1040.5V172H1029V173ZM1020.52 142.127L1028.52 172.627L1029.48 172.373L1021.48 141.873L1020.52 142.127ZM956.5 142.5H1021V141.5H956.5V142.5ZM937.423 173.266L956.923 142.266L956.077 141.734L936.577 172.734L937.423 173.266ZM681 132.5H737.5V131.5H681V132.5ZM721.08 69.2285L680.58 131.728L681.42 132.272L721.92 69.7722L721.08 69.2285ZM737.984 131.876L721.984 69.3763L721.016 69.6243L737.016 132.124L737.984 131.876ZM1019.5 132H963V133H1019.5V132ZM1003.02 70.1243L1019.02 132.624L1019.98 132.376L1003.98 69.8763L1003.02 70.1243ZM963.42 132.772L1003.92 70.2722L1003.08 69.7285L962.58 132.228L963.42 132.772Z" fill="black"/>
</g>
<defs>
<clipPath id="clip0_737_128">
<rect width="1049" height="233" fill="white"/>
</clipPath>
</defs>
</svg>
